<?xml version="1.0" encoding="iso-8859-1"?>
<!-- Generator: Adobe Illustrator 19.0.0, SVG Export Plug-In . SVG Version: 6.00 Build 0)  -->
<svg version="1.1" id="Capa_1" xmlns="http://www.w3.org/2000/svg" xmlns:xlink="http://www.w3.org/1999/xlink" x="0px" y="0px"
	 viewBox="0 0 480 480" style="enable-background:new 0 0 480 480;" xml:space="preserve">
<g>
	<path style="fill:#ABABAB;" d="M353.07,259.996L240,64.008L126.93,259.996l-13.859-7.992l120-208
		c2.544-3.827,7.708-4.868,11.536-2.324c0.921,0.612,1.711,1.402,2.324,2.324l120,208L353.07,259.996z"/>
	<path style="fill:#ABABAB;" d="M47.336,443.191l-14.672-6.383l80-184c1.761-4.051,6.472-5.908,10.523-4.148
		c2.05,0.891,3.634,2.599,4.367,4.71l64,184l-15.109,5.258l-57.273-164.66L47.336,443.191z"/>
	<path style="fill:#ABABAB;" d="M432.664,443.191l-71.836-165.223l-57.273,164.66l-15.109-5.258l64-184
		c1.45-4.173,6.008-6.38,10.18-4.93c2.111,0.734,3.819,2.317,4.71,4.367l80,184L432.664,443.191z"/>
</g>
<g>
	<circle style="fill:#458F84;" cx="120" cy="256" r="40"/>
	<circle style="fill:#458F84;" cx="360" cy="256" r="40"/>
</g>
<g>
	<circle style="fill:#B08F4C;" cx="440" cy="440" r="40"/>
	<circle style="fill:#B08F4C;" cx="296" cy="440" r="40"/>
	<circle style="fill:#B08F4C;" cx="184" cy="440" r="40"/>
	<circle style="fill:#B08F4C;" cx="40" cy="440" r="40"/>
</g>
<circle style="fill:#DB735C;" cx="240" cy="48" r="48"/>
<g>
</g>
<g>
</g>
<g>
</g>
<g>
</g>
<g>
</g>
<g>
</g>
<g>
</g>
<g>
</g>
<g>
</g>
<g>
</g>
<g>
</g>
<g>
</g>
<g>
</g>
<g>
</g>
<g>
</g>
</svg>
