<svg height="511pt" viewBox="-62 0 511 511.99949" width="511pt" xmlns="http://www.w3.org/2000/svg"><path d="m387.402344 158.921875c-1.015625-97.679687-75.660156-159.925781-173.335938-158.9101562-89.746094.9335932-152.835937 38.3867192-170.128906 125.0742192-1.640625 8.230468-1.269531 16.742187.972656 24.832031l1.742188 6.285156c2.105468 7.59375.527344 15.734375-4.265625 21.988281l-39.261719 52.8125c-5.570312 7.265625-1.835938 17.855469 7.054688 20.03125l30.6875 7.5c5.324218 1.300782 7.207031 7.902344 3.371093 11.816406l-9.859375 10.070313c-2.324218 2.375-1.851562 6.289063.972656 8.039063l8.5 5.257812c3.0625 1.894531 3.308594 6.261719.472657 8.488281l-6.625 5.199219c-2.816407 2.214844-2.59375 6.550781.4375 8.464844l15.457031 9.757812-13.601562 42.558594c-5.539063 17.335938 9.085937 34.449219 27.074218 31.675781l45.792969-7.054687c7.640625-1.179688 15.117187 2.925781 18.21875 10.003906l22.332031 50.914062h204.714844l-40.503906-111.921874c-6.796875-18.78125-1.558594-39.871094 13.371094-53.136719 56.78125-50.441407 56.621093-109.601563 56.410156-129.746094zm0 0" fill="#59c7d3"/><path d="m330.992188 288.671875c56.78125-50.445313 56.621093-109.605469 56.410156-129.75-1.015625-97.679687-75.660156-159.925781-173.335938-158.9101562-11.039062.1171872-21.671875.7851562-31.867187 2.0273432 81.515625 11.425782 140.40625 70.195313 141.308593 156.882813.207032 20.144531.371094 79.304687-56.410156 129.75-14.933594 13.265625-20.171875 34.355469-13.375 53.136719l41.132813 111.917968h63.269531l-40.503906-111.917968c-6.796875-18.78125-1.558594-39.871094 13.371094-53.136719zm0 0" fill="#44b6bc"/><path d="m136.472656 462.09375v42.902344c0 4.546875 4.261719 7.886718 8.675782 6.796875l225.40625-55.628907c4.035156-.996093 6.316406-5.269531 4.902343-9.179687l-15.050781-41.589844c-1.226562-3.394531-4.835938-5.296875-8.332031-4.394531l-210.351563 54.316406c-3.089844.796875-5.25 3.585938-5.25 6.777344zm0 0" fill="#ff8c51"/><path d="m375.457031 446.984375-15.050781-41.589844c-1.226562-3.394531-4.835938-5.296875-8.332031-4.394531l-51.554688 13.3125 19.644531 54.285156 50.390626-12.433594c4.035156-.996093 6.320312-5.269531 4.902343-9.179687zm0 0" fill="#f27740"/><path d="m334.585938 141.902344c1.175781-2.191406 2.039062-4.5625 2.53125-7.09375 2.511718-12.949219-5.453126-25.921875-18.589844-32.222656.640625-14.472657-11.269532-28.1875-28.261719-31.640626-.175781-.035156-.351563-.0625-.527344-.09375-4.039062-9.84375-13.777343-17.917968-26.257812-20.457031-8.117188-1.648437-16.03125-.679687-22.617188 2.265625-8.339843-6.867187-21.105469-9.046875-33.488281-4.652344-4.097656 1.457032-7.785156 3.507813-10.984375 5.980469-8.238281-5.164062-19.558594-6.453125-30.574219-2.542969-6.851562 2.433594-12.578125 6.527344-16.734375 11.507813-10.1875-2.71875-22.488281.421875-32.035156 9.238281-6.589844 6.082032-10.683594 13.78125-12.066406 21.46875-6.273438 2.28125-12.273438 6.558594-17.007813 12.628906-11.730468 15.03125-11.292968 35.34375.972656 45.375 2.683594 2.199219 5.714844 3.71875 8.933594 4.597657 2.21875 14.800781 22.390625 26.390625 46.957032 26.390625 1.847656 0 3.671874-.074219 5.464843-.203125-1.015625 2.378906-1.5625 4.871093-1.5625 7.445312 0 15.402344 19.398438 28 43.941407 29.023438 2.0625 7.5 8.777343 14.019531 18.242187 18.398437l20.90625 36.539063c1.183594 2.070312 3.386719 3.34375 5.769531 3.34375h24.5c4.132813 0 7.261719-3.730469 6.542969-7.800781l-4.691406-26.542969c1.980469.15625 3.988281.265625 6.039062.265625 25.253907 0 45.875-12.246094 47.109375-27.640625 3.417969-1.566407 6.46875-3.871094 8.921875-6.921875 4.371094-5.441406 6.121094-12.335938 5.484375-19.390625 2.863282-1.53125 5.429688-3.605469 7.546875-6.238281 9.050781-11.261719 6.859375-28.753907-4.464843-41.027344zm0 0" fill="#e3f6ff"/><path d="m334.585938 141.902344c1.175781-2.1875 2.039062-4.5625 2.53125-7.09375 2.511718-12.949219-5.453126-25.921875-18.589844-32.222656.640625-14.472657-11.269532-28.1875-28.261719-31.640626-.175781-.035156-.351563-.0625-.527344-.09375-4.039062-9.84375-13.777343-17.917968-26.257812-20.457031-8.117188-1.648437-16.03125-.679687-22.617188 2.265625-8.339843-6.867187-21.105469-9.046875-33.488281-4.652344-1.726562.613282-3.363281 1.355469-4.9375 2.167969.398438.070313.796875.136719 1.195312.21875 12.480469 2.539063 22.21875 10.613281 26.257813 20.457031.175781.03125.351563.058594.527344.09375 16.992187 3.453126 28.898437 17.167969 28.261719 31.640626 13.136718 6.300781 21.101562 19.273437 18.589843 32.222656-.492187 2.53125-1.355469 4.90625-2.53125 7.09375 11.328125 12.273437 13.515625 29.765625 4.460938 41.027344-2.117188 2.632812-4.683594 4.707031-7.542969 6.238281.636719 7.054687-1.113281 13.949219-5.488281 19.390625-2.449219 3.050781-5.5 5.355468-8.921875 6.921875-.617188 7.738281-6.136719 14.675781-14.679688 19.664062-13.574218 7.929688-18.546875 25.0625-10.742187 38.707031l.003906.003907c1.183594 2.066406 3.382813 3.34375 5.769531 3.34375h24.496094c4.132812 0 7.265625-3.730469 6.546875-7.800781l-4.691406-26.546876c1.980469.160157 3.988281.265626 6.039062.265626 25.253907 0 45.871094-12.246094 47.105469-27.636719 3.421875-1.566407 6.472656-3.871094 8.921875-6.921875 4.375-5.441406 6.125-12.335938 5.488281-19.394532 2.859375-1.527343 5.425782-3.601562 7.546875-6.238281 9.050781-11.257812 6.859375-28.75-4.464843-41.023437zm0 0" fill="#c5dcea"/><g fill="#465058"><path d="m210.832031 95.230469c-4.273437 0-8.539062 1.613281-9.578125 5.074219l-22.273437 72.585937c-.117188.460937-.230469.921875-.230469 1.152344 0 3.691406 5.425781 6.230469 9.460938 6.230469 2.539062 0 4.503906-.808594 5.078124-3l4.386719-15.347657h26.425781l4.382813 15.347657c.578125 2.191406 2.539063 3 5.078125 3 4.039062 0 9.460938-2.652344 9.460938-6.230469 0-.347657-.113282-.691407-.230469-1.152344l-22.269531-72.585937c-1.039063-3.460938-5.308594-5.074219-9.691407-5.074219zm-10.042969 54.925781 10.042969-35.425781 10.035157 35.425781zm0 0"/><path d="m256.175781 100.539062v75.003907c0 3.117187 3.691407 4.730469 7.5 4.730469 3.695313 0 7.503907-1.613282 7.503907-4.730469v-75.003907c0-3.234374-3.808594-4.617187-7.503907-4.617187-3.808593 0-7.5 1.382813-7.5 4.617187zm0 0"/></g></svg>